<?xml version="1.0" encoding="utf-8"?>
<svg xmlns="http://www.w3.org/2000/svg" xmlns:xlink="http://www.w3.org/1999/xlink" width="600" height="400" viewBox="0 0 2400 1600">
<defs>
  <clipPath id="clip320">
    <rect x="0" y="0" width="2400" height="1600"/>
  </clipPath>
</defs>
<path clip-path="url(#clip320)" d="M0 1600 L2400 1600 L2400 0 L0 0  Z" fill="#ffffff" fill-rule="evenodd" fill-opacity="1"/>
<defs>
  <clipPath id="clip321">
    <rect x="264" y="123" width="2089" height="1301"/>
  </clipPath>
</defs>
<path clip-path="url(#clip320)" d="M264.773 1423.18 L2352.76 1423.18 L2352.76 123.472 L264.773 123.472  Z" fill="#ffffff" fill-rule="evenodd" fill-opacity="1"/>
<polyline clip-path="url(#clip321)" style="stroke:#000000; stroke-linecap:round; stroke-linejoin:round; stroke-width:2; stroke-opacity:0.1; fill:none" points="323.867,1423.18 323.867,123.472 "/>
<polyline clip-path="url(#clip321)" style="stroke:#000000; stroke-linecap:round; stroke-linejoin:round; stroke-width:2; stroke-opacity:0.1; fill:none" points="980.466,1423.18 980.466,123.472 "/>
<polyline clip-path="url(#clip321)" style="stroke:#000000; stroke-linecap:round; stroke-linejoin:round; stroke-width:2; stroke-opacity:0.1; fill:none" points="1637.06,1423.18 1637.06,123.472 "/>
<polyline clip-path="url(#clip321)" style="stroke:#000000; stroke-linecap:round; stroke-linejoin:round; stroke-width:2; stroke-opacity:0.1; fill:none" points="2293.66,1423.18 2293.66,123.472 "/>
<polyline clip-path="url(#clip321)" style="stroke:#000000; stroke-linecap:round; stroke-linejoin:round; stroke-width:2; stroke-opacity:0.1; fill:none" points="264.773,1386.4 2352.76,1386.4 "/>
<polyline clip-path="url(#clip321)" style="stroke:#000000; stroke-linecap:round; stroke-linejoin:round; stroke-width:2; stroke-opacity:0.1; fill:none" points="264.773,1096.19 2352.76,1096.19 "/>
<polyline clip-path="url(#clip321)" style="stroke:#000000; stroke-linecap:round; stroke-linejoin:round; stroke-width:2; stroke-opacity:0.1; fill:none" points="264.773,805.975 2352.76,805.975 "/>
<polyline clip-path="url(#clip321)" style="stroke:#000000; stroke-linecap:round; stroke-linejoin:round; stroke-width:2; stroke-opacity:0.1; fill:none" points="264.773,515.764 2352.76,515.764 "/>
<polyline clip-path="url(#clip321)" style="stroke:#000000; stroke-linecap:round; stroke-linejoin:round; stroke-width:2; stroke-opacity:0.1; fill:none" points="264.773,225.554 2352.76,225.554 "/>
<polyline clip-path="url(#clip320)" style="stroke:#000000; stroke-linecap:round; stroke-linejoin:round; stroke-width:4; stroke-opacity:1; fill:none" points="264.773,1423.18 2352.76,1423.18 "/>
<polyline clip-path="url(#clip320)" style="stroke:#000000; stroke-linecap:round; stroke-linejoin:round; stroke-width:4; stroke-opacity:1; fill:none" points="323.867,1423.18 323.867,1404.28 "/>
<polyline clip-path="url(#clip320)" style="stroke:#000000; stroke-linecap:round; stroke-linejoin:round; stroke-width:4; stroke-opacity:1; fill:none" points="980.466,1423.18 980.466,1404.28 "/>
<polyline clip-path="url(#clip320)" style="stroke:#000000; stroke-linecap:round; stroke-linejoin:round; stroke-width:4; stroke-opacity:1; fill:none" points="1637.06,1423.18 1637.06,1404.28 "/>
<polyline clip-path="url(#clip320)" style="stroke:#000000; stroke-linecap:round; stroke-linejoin:round; stroke-width:4; stroke-opacity:1; fill:none" points="2293.66,1423.18 2293.66,1404.28 "/>
<path clip-path="url(#clip320)" d="M323.867 1454.1 Q320.256 1454.1 318.427 1457.66 Q316.622 1461.2 316.622 1468.33 Q316.622 1475.44 318.427 1479.01 Q320.256 1482.55 323.867 1482.55 Q327.502 1482.55 329.307 1479.01 Q331.136 1475.44 331.136 1468.33 Q331.136 1461.2 329.307 1457.66 Q327.502 1454.1 323.867 1454.1 M323.867 1450.39 Q329.677 1450.39 332.733 1455 Q335.812 1459.58 335.812 1468.33 Q335.812 1477.06 332.733 1481.67 Q329.677 1486.25 323.867 1486.25 Q318.057 1486.25 314.978 1481.67 Q311.923 1477.06 311.923 1468.33 Q311.923 1459.58 314.978 1455 Q318.057 1450.39 323.867 1450.39 Z" fill="#000000" fill-rule="nonzero" fill-opacity="1" /><path clip-path="url(#clip320)" d="M970.848 1481.64 L978.486 1481.64 L978.486 1455.28 L970.176 1456.95 L970.176 1452.69 L978.44 1451.02 L983.116 1451.02 L983.116 1481.64 L990.755 1481.64 L990.755 1485.58 L970.848 1485.58 L970.848 1481.64 Z" fill="#000000" fill-rule="nonzero" fill-opacity="1" /><path clip-path="url(#clip320)" d="M1631.72 1481.64 L1648.04 1481.64 L1648.04 1485.58 L1626.09 1485.58 L1626.09 1481.64 Q1628.75 1478.89 1633.34 1474.26 Q1637.94 1469.61 1639.12 1468.27 Q1641.37 1465.74 1642.25 1464.01 Q1643.15 1462.25 1643.15 1460.56 Q1643.15 1457.8 1641.21 1456.07 Q1639.29 1454.33 1636.18 1454.33 Q1633.99 1454.33 1631.53 1455.09 Q1629.1 1455.86 1626.32 1457.41 L1626.32 1452.69 Q1629.15 1451.55 1631.6 1450.97 Q1634.05 1450.39 1636.09 1450.39 Q1641.46 1450.39 1644.66 1453.08 Q1647.85 1455.77 1647.85 1460.26 Q1647.85 1462.39 1647.04 1464.31 Q1646.25 1466.2 1644.15 1468.8 Q1643.57 1469.47 1640.47 1472.69 Q1637.36 1475.88 1631.72 1481.64 Z" fill="#000000" fill-rule="nonzero" fill-opacity="1" /><path clip-path="url(#clip320)" d="M2297.91 1466.95 Q2301.27 1467.66 2303.14 1469.93 Q2305.04 1472.2 2305.04 1475.53 Q2305.04 1480.65 2301.52 1483.45 Q2298 1486.25 2291.52 1486.25 Q2289.34 1486.25 2287.03 1485.81 Q2284.74 1485.39 2282.28 1484.54 L2282.28 1480.02 Q2284.23 1481.16 2286.54 1481.74 Q2288.86 1482.32 2291.38 1482.32 Q2295.78 1482.32 2298.07 1480.58 Q2300.39 1478.84 2300.39 1475.53 Q2300.39 1472.48 2298.23 1470.77 Q2296.1 1469.03 2292.28 1469.03 L2288.26 1469.03 L2288.26 1465.19 L2292.47 1465.19 Q2295.92 1465.19 2297.75 1463.82 Q2299.58 1462.43 2299.58 1459.84 Q2299.58 1457.18 2297.68 1455.77 Q2295.8 1454.33 2292.28 1454.33 Q2290.36 1454.33 2288.16 1454.75 Q2285.97 1455.16 2283.33 1456.04 L2283.33 1451.88 Q2285.99 1451.14 2288.3 1450.77 Q2290.64 1450.39 2292.7 1450.39 Q2298.03 1450.39 2301.13 1452.83 Q2304.23 1455.23 2304.23 1459.35 Q2304.23 1462.22 2302.59 1464.21 Q2300.94 1466.18 2297.91 1466.95 Z" fill="#000000" fill-rule="nonzero" fill-opacity="1" /><path clip-path="url(#clip320)" d="M1247.92 1522.27 L1247.92 1532.4 L1259.99 1532.4 L1259.99 1536.95 L1247.92 1536.95 L1247.92 1556.3 Q1247.92 1560.66 1249.1 1561.9 Q1250.31 1563.14 1253.97 1563.14 L1259.99 1563.14 L1259.99 1568.04 L1253.97 1568.04 Q1247.19 1568.04 1244.61 1565.53 Q1242.04 1562.98 1242.04 1556.3 L1242.04 1536.95 L1237.74 1536.95 L1237.74 1532.4 L1242.04 1532.4 L1242.04 1522.27 L1247.92 1522.27 Z" fill="#000000" fill-rule="nonzero" fill-opacity="1" /><path clip-path="url(#clip320)" d="M1267.69 1532.4 L1273.55 1532.4 L1273.55 1568.04 L1267.69 1568.04 L1267.69 1532.4 M1267.69 1518.52 L1273.55 1518.52 L1273.55 1525.93 L1267.69 1525.93 L1267.69 1518.52 Z" fill="#000000" fill-rule="nonzero" fill-opacity="1" /><path clip-path="url(#clip320)" d="M1313.55 1539.24 Q1315.75 1535.29 1318.81 1533.41 Q1321.86 1531.54 1326 1531.54 Q1331.57 1531.54 1334.59 1535.45 Q1337.62 1539.33 1337.62 1546.53 L1337.62 1568.04 L1331.73 1568.04 L1331.73 1546.72 Q1331.73 1541.59 1329.91 1539.11 Q1328.1 1536.63 1324.38 1536.63 Q1319.83 1536.63 1317.18 1539.65 Q1314.54 1542.68 1314.54 1547.9 L1314.54 1568.04 L1308.65 1568.04 L1308.65 1546.72 Q1308.65 1541.56 1306.84 1539.11 Q1305.02 1536.63 1301.24 1536.63 Q1296.75 1536.63 1294.11 1539.68 Q1291.47 1542.71 1291.47 1547.9 L1291.47 1568.04 L1285.58 1568.04 L1285.58 1532.4 L1291.47 1532.4 L1291.47 1537.93 Q1293.47 1534.66 1296.27 1533.1 Q1299.07 1531.54 1302.92 1531.54 Q1306.81 1531.54 1309.51 1533.51 Q1312.25 1535.48 1313.55 1539.24 Z" fill="#000000" fill-rule="nonzero" fill-opacity="1" /><path clip-path="url(#clip320)" d="M1379.79 1548.76 L1379.79 1551.62 L1352.86 1551.62 Q1353.25 1557.67 1356.49 1560.85 Q1359.77 1564 1365.59 1564 Q1368.97 1564 1372.12 1563.17 Q1375.3 1562.35 1378.42 1560.69 L1378.42 1566.23 Q1375.27 1567.57 1371.96 1568.27 Q1368.65 1568.97 1365.24 1568.97 Q1356.71 1568.97 1351.72 1564 Q1346.75 1559.04 1346.75 1550.57 Q1346.75 1541.82 1351.46 1536.69 Q1356.21 1531.54 1364.23 1531.54 Q1371.42 1531.54 1375.59 1536.18 Q1379.79 1540.8 1379.79 1548.76 M1373.93 1547.04 Q1373.87 1542.23 1371.23 1539.37 Q1368.62 1536.5 1364.29 1536.5 Q1359.39 1536.5 1356.43 1539.27 Q1353.5 1542.04 1353.05 1547.07 L1373.93 1547.04 Z" fill="#000000" fill-rule="nonzero" fill-opacity="1" /><polyline clip-path="url(#clip320)" style="stroke:#000000; stroke-linecap:round; stroke-linejoin:round; stroke-width:4; stroke-opacity:1; fill:none" points="264.773,1423.18 264.773,123.472 "/>
<polyline clip-path="url(#clip320)" style="stroke:#000000; stroke-linecap:round; stroke-linejoin:round; stroke-width:4; stroke-opacity:1; fill:none" points="264.773,1386.4 283.671,1386.4 "/>
<polyline clip-path="url(#clip320)" style="stroke:#000000; stroke-linecap:round; stroke-linejoin:round; stroke-width:4; stroke-opacity:1; fill:none" points="264.773,1096.19 283.671,1096.19 "/>
<polyline clip-path="url(#clip320)" style="stroke:#000000; stroke-linecap:round; stroke-linejoin:round; stroke-width:4; stroke-opacity:1; fill:none" points="264.773,805.975 283.671,805.975 "/>
<polyline clip-path="url(#clip320)" style="stroke:#000000; stroke-linecap:round; stroke-linejoin:round; stroke-width:4; stroke-opacity:1; fill:none" points="264.773,515.764 283.671,515.764 "/>
<polyline clip-path="url(#clip320)" style="stroke:#000000; stroke-linecap:round; stroke-linejoin:round; stroke-width:4; stroke-opacity:1; fill:none" points="264.773,225.554 283.671,225.554 "/>
<path clip-path="url(#clip320)" d="M116.39 1369.12 L134.746 1369.12 L134.746 1373.05 L120.672 1373.05 L120.672 1381.52 Q121.691 1381.18 122.709 1381.01 Q123.728 1380.83 124.746 1380.83 Q130.533 1380.83 133.913 1384 Q137.292 1387.17 137.292 1392.59 Q137.292 1398.17 133.82 1401.27 Q130.348 1404.35 124.029 1404.35 Q121.853 1404.35 119.584 1403.98 Q117.339 1403.61 114.931 1402.87 L114.931 1398.17 Q117.015 1399.3 119.237 1399.86 Q121.459 1400.41 123.936 1400.41 Q127.941 1400.41 130.279 1398.31 Q132.617 1396.2 132.617 1392.59 Q132.617 1388.98 130.279 1386.87 Q127.941 1384.76 123.936 1384.76 Q122.061 1384.76 120.186 1385.18 Q118.334 1385.6 116.39 1386.48 L116.39 1369.12 Z" fill="#000000" fill-rule="nonzero" fill-opacity="1" /><path clip-path="url(#clip320)" d="M156.505 1372.19 Q152.894 1372.19 151.066 1375.76 Q149.26 1379.3 149.26 1386.43 Q149.26 1393.54 151.066 1397.1 Q152.894 1400.64 156.505 1400.64 Q160.14 1400.64 161.945 1397.1 Q163.774 1393.54 163.774 1386.43 Q163.774 1379.3 161.945 1375.76 Q160.14 1372.19 156.505 1372.19 M156.505 1368.49 Q162.315 1368.49 165.371 1373.1 Q168.45 1377.68 168.45 1386.43 Q168.45 1395.16 165.371 1399.76 Q162.315 1404.35 156.505 1404.35 Q150.695 1404.35 147.616 1399.76 Q144.561 1395.16 144.561 1386.43 Q144.561 1377.68 147.616 1373.1 Q150.695 1368.49 156.505 1368.49 Z" fill="#000000" fill-rule="nonzero" fill-opacity="1" /><path clip-path="url(#clip320)" d="M186.667 1372.19 Q183.056 1372.19 181.227 1375.76 Q179.422 1379.3 179.422 1386.43 Q179.422 1393.54 181.227 1397.1 Q183.056 1400.64 186.667 1400.64 Q190.301 1400.64 192.107 1397.1 Q193.936 1393.54 193.936 1386.43 Q193.936 1379.3 192.107 1375.76 Q190.301 1372.19 186.667 1372.19 M186.667 1368.49 Q192.477 1368.49 195.533 1373.1 Q198.612 1377.68 198.612 1386.43 Q198.612 1395.16 195.533 1399.76 Q192.477 1404.35 186.667 1404.35 Q180.857 1404.35 177.778 1399.76 Q174.723 1395.16 174.723 1386.43 Q174.723 1377.68 177.778 1373.1 Q180.857 1368.49 186.667 1368.49 Z" fill="#000000" fill-rule="nonzero" fill-opacity="1" /><path clip-path="url(#clip320)" d="M216.829 1372.19 Q213.218 1372.19 211.389 1375.76 Q209.584 1379.3 209.584 1386.43 Q209.584 1393.54 211.389 1397.1 Q213.218 1400.64 216.829 1400.64 Q220.463 1400.64 222.269 1397.1 Q224.098 1393.54 224.098 1386.43 Q224.098 1379.3 222.269 1375.76 Q220.463 1372.19 216.829 1372.19 M216.829 1368.49 Q222.639 1368.49 225.695 1373.1 Q228.773 1377.68 228.773 1386.43 Q228.773 1395.16 225.695 1399.76 Q222.639 1404.35 216.829 1404.35 Q211.019 1404.35 207.94 1399.76 Q204.885 1395.16 204.885 1386.43 Q204.885 1377.68 207.94 1373.1 Q211.019 1368.49 216.829 1368.49 Z" fill="#000000" fill-rule="nonzero" fill-opacity="1" /><path clip-path="url(#clip320)" d="M126.922 1094.32 Q123.774 1094.32 121.922 1096.47 Q120.093 1098.63 120.093 1102.38 Q120.093 1106.1 121.922 1108.28 Q123.774 1110.43 126.922 1110.43 Q130.07 1110.43 131.899 1108.28 Q133.751 1106.1 133.751 1102.38 Q133.751 1098.63 131.899 1096.47 Q130.07 1094.32 126.922 1094.32 M136.204 1079.67 L136.204 1083.93 Q134.445 1083.09 132.64 1082.66 Q130.857 1082.22 129.098 1082.22 Q124.468 1082.22 122.015 1085.34 Q119.584 1088.47 119.237 1094.78 Q120.603 1092.77 122.663 1091.71 Q124.723 1090.62 127.2 1090.62 Q132.408 1090.62 135.417 1093.79 Q138.45 1096.94 138.45 1102.38 Q138.45 1107.7 135.302 1110.92 Q132.154 1114.14 126.922 1114.14 Q120.927 1114.14 117.756 1109.55 Q114.584 1104.95 114.584 1096.22 Q114.584 1088.03 118.473 1083.16 Q122.362 1078.28 128.913 1078.28 Q130.672 1078.28 132.455 1078.63 Q134.26 1078.97 136.204 1079.67 Z" fill="#000000" fill-rule="nonzero" fill-opacity="1" /><path clip-path="url(#clip320)" d="M156.505 1081.98 Q152.894 1081.98 151.066 1085.55 Q149.26 1089.09 149.26 1096.22 Q149.26 1103.33 151.066 1106.89 Q152.894 1110.43 156.505 1110.43 Q160.14 1110.43 161.945 1106.89 Q163.774 1103.33 163.774 1096.22 Q163.774 1089.09 161.945 1085.55 Q160.14 1081.98 156.505 1081.98 M156.505 1078.28 Q162.315 1078.28 165.371 1082.89 Q168.45 1087.47 168.45 1096.22 Q168.45 1104.95 165.371 1109.55 Q162.315 1114.14 156.505 1114.14 Q150.695 1114.14 147.616 1109.55 Q144.561 1104.95 144.561 1096.22 Q144.561 1087.47 147.616 1082.89 Q150.695 1078.28 156.505 1078.28 Z" fill="#000000" fill-rule="nonzero" fill-opacity="1" /><path clip-path="url(#clip320)" d="M186.667 1081.98 Q183.056 1081.98 181.227 1085.55 Q179.422 1089.09 179.422 1096.22 Q179.422 1103.33 181.227 1106.89 Q183.056 1110.43 186.667 1110.43 Q190.301 1110.43 192.107 1106.89 Q193.936 1103.33 193.936 1096.22 Q193.936 1089.09 192.107 1085.55 Q190.301 1081.98 186.667 1081.98 M186.667 1078.28 Q192.477 1078.28 195.533 1082.89 Q198.612 1087.47 198.612 1096.22 Q198.612 1104.95 195.533 1109.55 Q192.477 1114.14 186.667 1114.14 Q180.857 1114.14 177.778 1109.55 Q174.723 1104.95 174.723 1096.22 Q174.723 1087.47 177.778 1082.89 Q180.857 1078.28 186.667 1078.28 Z" fill="#000000" fill-rule="nonzero" fill-opacity="1" /><path clip-path="url(#clip320)" d="M216.829 1081.98 Q213.218 1081.98 211.389 1085.55 Q209.584 1089.09 209.584 1096.22 Q209.584 1103.33 211.389 1106.89 Q213.218 1110.43 216.829 1110.43 Q220.463 1110.43 222.269 1106.89 Q224.098 1103.33 224.098 1096.22 Q224.098 1089.09 222.269 1085.55 Q220.463 1081.98 216.829 1081.98 M216.829 1078.28 Q222.639 1078.28 225.695 1082.89 Q228.773 1087.47 228.773 1096.22 Q228.773 1104.95 225.695 1109.55 Q222.639 1114.14 216.829 1114.14 Q211.019 1114.14 207.94 1109.55 Q204.885 1104.95 204.885 1096.22 Q204.885 1087.47 207.94 1082.89 Q211.019 1078.28 216.829 1078.28 Z" fill="#000000" fill-rule="nonzero" fill-opacity="1" /><path clip-path="url(#clip320)" d="M115.163 788.695 L137.385 788.695 L137.385 790.685 L124.839 823.255 L119.955 823.255 L131.76 792.63 L115.163 792.63 L115.163 788.695 Z" fill="#000000" fill-rule="nonzero" fill-opacity="1" /><path clip-path="url(#clip320)" d="M156.505 791.773 Q152.894 791.773 151.066 795.338 Q149.26 798.88 149.26 806.009 Q149.26 813.116 151.066 816.681 Q152.894 820.222 156.505 820.222 Q160.14 820.222 161.945 816.681 Q163.774 813.116 163.774 806.009 Q163.774 798.88 161.945 795.338 Q160.14 791.773 156.505 791.773 M156.505 788.07 Q162.315 788.07 165.371 792.676 Q168.45 797.259 168.45 806.009 Q168.45 814.736 165.371 819.343 Q162.315 823.926 156.505 823.926 Q150.695 823.926 147.616 819.343 Q144.561 814.736 144.561 806.009 Q144.561 797.259 147.616 792.676 Q150.695 788.07 156.505 788.07 Z" fill="#000000" fill-rule="nonzero" fill-opacity="1" /><path clip-path="url(#clip320)" d="M186.667 791.773 Q183.056 791.773 181.227 795.338 Q179.422 798.88 179.422 806.009 Q179.422 813.116 181.227 816.681 Q183.056 820.222 186.667 820.222 Q190.301 820.222 192.107 816.681 Q193.936 813.116 193.936 806.009 Q193.936 798.88 192.107 795.338 Q190.301 791.773 186.667 791.773 M186.667 788.07 Q192.477 788.07 195.533 792.676 Q198.612 797.259 198.612 806.009 Q198.612 814.736 195.533 819.343 Q192.477 823.926 186.667 823.926 Q180.857 823.926 177.778 819.343 Q174.723 814.736 174.723 806.009 Q174.723 797.259 177.778 792.676 Q180.857 788.07 186.667 788.07 Z" fill="#000000" fill-rule="nonzero" fill-opacity="1" /><path clip-path="url(#clip320)" d="M216.829 791.773 Q213.218 791.773 211.389 795.338 Q209.584 798.88 209.584 806.009 Q209.584 813.116 211.389 816.681 Q213.218 820.222 216.829 820.222 Q220.463 820.222 222.269 816.681 Q224.098 813.116 224.098 806.009 Q224.098 798.88 222.269 795.338 Q220.463 791.773 216.829 791.773 M216.829 788.07 Q222.639 788.07 225.695 792.676 Q228.773 797.259 228.773 806.009 Q228.773 814.736 225.695 819.343 Q222.639 823.926 216.829 823.926 Q211.019 823.926 207.94 819.343 Q204.885 814.736 204.885 806.009 Q204.885 797.259 207.94 792.676 Q211.019 788.07 216.829 788.07 Z" fill="#000000" fill-rule="nonzero" fill-opacity="1" /><path clip-path="url(#clip320)" d="M126.343 516.632 Q123.01 516.632 121.089 518.415 Q119.191 520.197 119.191 523.322 Q119.191 526.447 121.089 528.229 Q123.01 530.012 126.343 530.012 Q129.677 530.012 131.598 528.229 Q133.519 526.424 133.519 523.322 Q133.519 520.197 131.598 518.415 Q129.7 516.632 126.343 516.632 M121.668 514.641 Q118.658 513.901 116.968 511.841 Q115.302 509.78 115.302 506.817 Q115.302 502.674 118.242 500.267 Q121.205 497.859 126.343 497.859 Q131.505 497.859 134.445 500.267 Q137.385 502.674 137.385 506.817 Q137.385 509.78 135.695 511.841 Q134.029 513.901 131.042 514.641 Q134.422 515.429 136.297 517.72 Q138.195 520.012 138.195 523.322 Q138.195 528.345 135.117 531.03 Q132.061 533.715 126.343 533.715 Q120.626 533.715 117.547 531.03 Q114.492 528.345 114.492 523.322 Q114.492 520.012 116.39 517.72 Q118.288 515.429 121.668 514.641 M119.955 507.257 Q119.955 509.942 121.621 511.447 Q123.311 512.952 126.343 512.952 Q129.353 512.952 131.042 511.447 Q132.755 509.942 132.755 507.257 Q132.755 504.572 131.042 503.067 Q129.353 501.563 126.343 501.563 Q123.311 501.563 121.621 503.067 Q119.955 504.572 119.955 507.257 Z" fill="#000000" fill-rule="nonzero" fill-opacity="1" /><path clip-path="url(#clip320)" d="M156.505 501.563 Q152.894 501.563 151.066 505.128 Q149.26 508.669 149.26 515.799 Q149.26 522.905 151.066 526.47 Q152.894 530.012 156.505 530.012 Q160.14 530.012 161.945 526.47 Q163.774 522.905 163.774 515.799 Q163.774 508.669 161.945 505.128 Q160.14 501.563 156.505 501.563 M156.505 497.859 Q162.315 497.859 165.371 502.466 Q168.45 507.049 168.45 515.799 Q168.45 524.526 165.371 529.132 Q162.315 533.715 156.505 533.715 Q150.695 533.715 147.616 529.132 Q144.561 524.526 144.561 515.799 Q144.561 507.049 147.616 502.466 Q150.695 497.859 156.505 497.859 Z" fill="#000000" fill-rule="nonzero" fill-opacity="1" /><path clip-path="url(#clip320)" d="M186.667 501.563 Q183.056 501.563 181.227 505.128 Q179.422 508.669 179.422 515.799 Q179.422 522.905 181.227 526.47 Q183.056 530.012 186.667 530.012 Q190.301 530.012 192.107 526.47 Q193.936 522.905 193.936 515.799 Q193.936 508.669 192.107 505.128 Q190.301 501.563 186.667 501.563 M186.667 497.859 Q192.477 497.859 195.533 502.466 Q198.612 507.049 198.612 515.799 Q198.612 524.526 195.533 529.132 Q192.477 533.715 186.667 533.715 Q180.857 533.715 177.778 529.132 Q174.723 524.526 174.723 515.799 Q174.723 507.049 177.778 502.466 Q180.857 497.859 186.667 497.859 Z" fill="#000000" fill-rule="nonzero" fill-opacity="1" /><path clip-path="url(#clip320)" d="M216.829 501.563 Q213.218 501.563 211.389 505.128 Q209.584 508.669 209.584 515.799 Q209.584 522.905 211.389 526.47 Q213.218 530.012 216.829 530.012 Q220.463 530.012 222.269 526.47 Q224.098 522.905 224.098 515.799 Q224.098 508.669 222.269 505.128 Q220.463 501.563 216.829 501.563 M216.829 497.859 Q222.639 497.859 225.695 502.466 Q228.773 507.049 228.773 515.799 Q228.773 524.526 225.695 529.132 Q222.639 533.715 216.829 533.715 Q211.019 533.715 207.94 529.132 Q204.885 524.526 204.885 515.799 Q204.885 507.049 207.94 502.466 Q211.019 497.859 216.829 497.859 Z" fill="#000000" fill-rule="nonzero" fill-opacity="1" /><path clip-path="url(#clip320)" d="M116.482 242.116 L116.482 237.857 Q118.242 238.69 120.047 239.13 Q121.853 239.57 123.589 239.57 Q128.218 239.57 130.649 236.468 Q133.103 233.343 133.45 227 Q132.107 228.991 130.047 230.056 Q127.987 231.121 125.487 231.121 Q120.302 231.121 117.269 227.996 Q114.26 224.848 114.26 219.408 Q114.26 214.084 117.408 210.866 Q120.556 207.649 125.788 207.649 Q131.783 207.649 134.931 212.255 Q138.103 216.838 138.103 225.588 Q138.103 233.76 134.214 238.644 Q130.348 243.505 123.797 243.505 Q122.038 243.505 120.232 243.158 Q118.427 242.811 116.482 242.116 M125.788 227.463 Q128.936 227.463 130.765 225.311 Q132.617 223.158 132.617 219.408 Q132.617 215.681 130.765 213.528 Q128.936 211.352 125.788 211.352 Q122.64 211.352 120.788 213.528 Q118.959 215.681 118.959 219.408 Q118.959 223.158 120.788 225.311 Q122.64 227.463 125.788 227.463 Z" fill="#000000" fill-rule="nonzero" fill-opacity="1" /><path clip-path="url(#clip320)" d="M156.505 211.352 Q152.894 211.352 151.066 214.917 Q149.26 218.459 149.26 225.588 Q149.26 232.695 151.066 236.26 Q152.894 239.801 156.505 239.801 Q160.14 239.801 161.945 236.26 Q163.774 232.695 163.774 225.588 Q163.774 218.459 161.945 214.917 Q160.14 211.352 156.505 211.352 M156.505 207.649 Q162.315 207.649 165.371 212.255 Q168.45 216.838 168.45 225.588 Q168.45 234.315 165.371 238.922 Q162.315 243.505 156.505 243.505 Q150.695 243.505 147.616 238.922 Q144.561 234.315 144.561 225.588 Q144.561 216.838 147.616 212.255 Q150.695 207.649 156.505 207.649 Z" fill="#000000" fill-rule="nonzero" fill-opacity="1" /><path clip-path="url(#clip320)" d="M186.667 211.352 Q183.056 211.352 181.227 214.917 Q179.422 218.459 179.422 225.588 Q179.422 232.695 181.227 236.26 Q183.056 239.801 186.667 239.801 Q190.301 239.801 192.107 236.26 Q193.936 232.695 193.936 225.588 Q193.936 218.459 192.107 214.917 Q190.301 211.352 186.667 211.352 M186.667 207.649 Q192.477 207.649 195.533 212.255 Q198.612 216.838 198.612 225.588 Q198.612 234.315 195.533 238.922 Q192.477 243.505 186.667 243.505 Q180.857 243.505 177.778 238.922 Q174.723 234.315 174.723 225.588 Q174.723 216.838 177.778 212.255 Q180.857 207.649 186.667 207.649 Z" fill="#000000" fill-rule="nonzero" fill-opacity="1" /><path clip-path="url(#clip320)" d="M216.829 211.352 Q213.218 211.352 211.389 214.917 Q209.584 218.459 209.584 225.588 Q209.584 232.695 211.389 236.26 Q213.218 239.801 216.829 239.801 Q220.463 239.801 222.269 236.26 Q224.098 232.695 224.098 225.588 Q224.098 218.459 222.269 214.917 Q220.463 211.352 216.829 211.352 M216.829 207.649 Q222.639 207.649 225.695 212.255 Q228.773 216.838 228.773 225.588 Q228.773 234.315 225.695 238.922 Q222.639 243.505 216.829 243.505 Q211.019 243.505 207.94 238.922 Q204.885 234.315 204.885 225.588 Q204.885 216.838 207.94 212.255 Q211.019 207.649 216.829 207.649 Z" fill="#000000" fill-rule="nonzero" fill-opacity="1" /><path clip-path="url(#clip320)" d="M58.657 1009.73 L77.5631 1009.73 L77.5631 1015.62 L28.3562 1015.62 L28.3562 1009.73 L33.7671 1009.73 Q30.5842 1007.89 29.0564 1005.09 Q27.4968 1002.25 27.4968 998.338 Q27.4968 991.845 32.6531 987.803 Q37.8093 983.729 46.212 983.729 Q54.6147 983.729 59.771 987.803 Q64.9272 991.845 64.9272 998.338 Q64.9272 1002.25 63.3994 1005.09 Q61.8398 1007.89 58.657 1009.73 M46.212 989.808 Q39.7508 989.808 36.0905 992.481 Q32.3984 995.123 32.3984 999.77 Q32.3984 1004.42 36.0905 1007.09 Q39.7508 1009.73 46.212 1009.73 Q52.6732 1009.73 56.3653 1007.09 Q60.0256 1004.42 60.0256 999.77 Q60.0256 995.123 56.3653 992.481 Q52.6732 989.808 46.212 989.808 Z" fill="#000000" fill-rule="nonzero" fill-opacity="1" /><path clip-path="url(#clip320)" d="M32.4621 960.207 Q32.4621 964.918 36.1542 967.655 Q39.8145 970.392 46.212 970.392 Q52.6095 970.392 56.3017 967.687 Q59.9619 964.95 59.9619 960.207 Q59.9619 955.528 56.2698 952.791 Q52.5777 950.054 46.212 950.054 Q39.8781 950.054 36.186 952.791 Q32.4621 955.528 32.4621 960.207 M27.4968 960.207 Q27.4968 952.568 32.4621 948.208 Q37.4273 943.847 46.212 943.847 Q54.9649 943.847 59.9619 948.208 Q64.9272 952.568 64.9272 960.207 Q64.9272 967.878 59.9619 972.238 Q54.9649 976.567 46.212 976.567 Q37.4273 976.567 32.4621 972.238 Q27.4968 967.878 27.4968 960.207 Z" fill="#000000" fill-rule="nonzero" fill-opacity="1" /><path clip-path="url(#clip320)" d="M58.657 928.474 L77.5631 928.474 L77.5631 934.362 L28.3562 934.362 L28.3562 928.474 L33.7671 928.474 Q30.5842 926.628 29.0564 923.827 Q27.4968 920.994 27.4968 917.08 Q27.4968 910.587 32.6531 906.544 Q37.8093 902.47 46.212 902.47 Q54.6147 902.47 59.771 906.544 Q64.9272 910.587 64.9272 917.08 Q64.9272 920.994 63.3994 923.827 Q61.8398 926.628 58.657 928.474 M46.212 908.55 Q39.7508 908.55 36.0905 911.223 Q32.3984 913.865 32.3984 918.512 Q32.3984 923.159 36.0905 925.832 Q39.7508 928.474 46.212 928.474 Q52.6732 928.474 56.3653 925.832 Q60.0256 923.159 60.0256 918.512 Q60.0256 913.865 56.3653 911.223 Q52.6732 908.55 46.212 908.55 Z" fill="#000000" fill-rule="nonzero" fill-opacity="1" /><path clip-path="url(#clip320)" d="M49.9359 893.367 L28.3562 893.367 L28.3562 887.511 L49.7131 887.511 Q54.7739 887.511 57.3202 885.537 Q59.8346 883.564 59.8346 879.617 Q59.8346 874.875 56.8109 872.138 Q53.7872 869.369 48.5673 869.369 L28.3562 869.369 L28.3562 863.512 L64.0042 863.512 L64.0042 869.369 L58.5296 869.369 Q61.7762 871.501 63.3676 874.334 Q64.9272 877.135 64.9272 880.859 Q64.9272 887.002 61.1078 890.184 Q57.2883 893.367 49.9359 893.367 M27.4968 878.631 L27.4968 878.631 Z" fill="#000000" fill-rule="nonzero" fill-opacity="1" /><path clip-path="url(#clip320)" d="M14.479 851.449 L14.479 845.593 L64.0042 845.593 L64.0042 851.449 L14.479 851.449 Z" fill="#000000" fill-rule="nonzero" fill-opacity="1" /><path clip-path="url(#clip320)" d="M46.0847 817.138 Q46.0847 824.236 47.7079 826.973 Q49.3312 829.71 53.2461 829.71 Q56.3653 829.71 58.2114 827.673 Q60.0256 825.604 60.0256 822.071 Q60.0256 817.202 56.5881 814.273 Q53.1188 811.313 47.3897 811.313 L46.0847 811.313 L46.0847 817.138 M43.6657 805.457 L64.0042 805.457 L64.0042 811.313 L58.5933 811.313 Q61.8398 813.319 63.3994 816.31 Q64.9272 819.302 64.9272 823.631 Q64.9272 829.105 61.8716 832.352 Q58.7843 835.567 53.6281 835.567 Q47.6125 835.567 44.5569 831.556 Q41.5014 827.514 41.5014 819.525 L41.5014 811.313 L40.9285 811.313 Q36.8862 811.313 34.6901 813.987 Q32.4621 816.629 32.4621 821.435 Q32.4621 824.49 33.1941 827.387 Q33.9262 830.283 35.3903 832.957 L29.9795 832.957 Q28.7381 829.742 28.1334 826.718 Q27.4968 823.695 27.4968 820.83 Q27.4968 813.096 31.5072 809.276 Q35.5176 805.457 43.6657 805.457 Z" fill="#000000" fill-rule="nonzero" fill-opacity="1" /><path clip-path="url(#clip320)" d="M18.2347 787.601 L28.3562 787.601 L28.3562 775.538 L32.9077 775.538 L32.9077 787.601 L52.2594 787.601 Q56.6199 787.601 57.8613 786.423 Q59.1026 785.214 59.1026 781.554 L59.1026 775.538 L64.0042 775.538 L64.0042 781.554 Q64.0042 788.333 61.4897 790.911 Q58.9434 793.489 52.2594 793.489 L32.9077 793.489 L32.9077 797.786 L28.3562 797.786 L28.3562 793.489 L18.2347 793.489 L18.2347 787.601 Z" fill="#000000" fill-rule="nonzero" fill-opacity="1" /><path clip-path="url(#clip320)" d="M28.3562 767.836 L28.3562 761.979 L64.0042 761.979 L64.0042 767.836 L28.3562 767.836 M14.479 767.836 L14.479 761.979 L21.895 761.979 L21.895 767.836 L14.479 767.836 Z" fill="#000000" fill-rule="nonzero" fill-opacity="1" /><path clip-path="url(#clip320)" d="M32.4621 735.912 Q32.4621 740.622 36.1542 743.359 Q39.8145 746.097 46.212 746.097 Q52.6095 746.097 56.3017 743.391 Q59.9619 740.654 59.9619 735.912 Q59.9619 731.233 56.2698 728.495 Q52.5777 725.758 46.212 725.758 Q39.8781 725.758 36.186 728.495 Q32.4621 731.233 32.4621 735.912 M27.4968 735.912 Q27.4968 728.273 32.4621 723.912 Q37.4273 719.552 46.212 719.552 Q54.9649 719.552 59.9619 723.912 Q64.9272 728.273 64.9272 735.912 Q64.9272 743.582 59.9619 747.943 Q54.9649 752.271 46.212 752.271 Q37.4273 752.271 32.4621 747.943 Q27.4968 743.582 27.4968 735.912 Z" fill="#000000" fill-rule="nonzero" fill-opacity="1" /><path clip-path="url(#clip320)" d="M42.4881 680.212 L64.0042 680.212 L64.0042 686.068 L42.679 686.068 Q37.6183 686.068 35.1038 688.041 Q32.5894 690.015 32.5894 693.962 Q32.5894 698.704 35.6131 701.441 Q38.6368 704.178 43.8567 704.178 L64.0042 704.178 L64.0042 710.067 L28.3562 710.067 L28.3562 704.178 L33.8944 704.178 Q30.6797 702.078 29.0883 699.245 Q27.4968 696.381 27.4968 692.657 Q27.4968 686.514 31.3163 683.363 Q35.1038 680.212 42.4881 680.212 Z" fill="#000000" fill-rule="nonzero" fill-opacity="1" /><path clip-path="url(#clip320)" d="M29.4065 625.085 L34.9447 625.085 Q33.6716 627.567 33.035 630.241 Q32.3984 632.914 32.3984 635.779 Q32.3984 640.139 33.7352 642.336 Q35.072 644.5 37.7456 644.5 Q39.7826 644.5 40.9603 642.94 Q42.1061 641.381 43.1565 636.67 L43.6021 634.665 Q44.9389 628.427 47.3897 625.817 Q49.8086 623.175 54.1691 623.175 Q59.1344 623.175 62.0308 627.122 Q64.9272 631.037 64.9272 637.911 Q64.9272 640.776 64.3543 643.895 Q63.8132 646.983 62.6992 650.42 L56.6518 650.42 Q58.3387 647.174 59.198 644.023 Q60.0256 640.872 60.0256 637.784 Q60.0256 633.646 58.6251 631.418 Q57.1929 629.19 54.6147 629.19 Q52.2276 629.19 50.9545 630.814 Q49.6813 632.405 48.5037 637.848 L48.0262 639.885 Q46.8804 645.328 44.5251 647.747 Q42.138 650.165 38.0002 650.165 Q32.9713 650.165 30.2341 646.601 Q27.4968 643.036 27.4968 636.479 Q27.4968 633.233 27.9743 630.368 Q28.4517 627.504 29.4065 625.085 Z" fill="#000000" fill-rule="nonzero" fill-opacity="1" /><path clip-path="url(#clip320)" d="M28.3562 613.849 L28.3562 607.993 L64.0042 607.993 L64.0042 613.849 L28.3562 613.849 M14.479 613.849 L14.479 607.993 L21.895 607.993 L21.895 613.849 L14.479 613.849 Z" fill="#000000" fill-rule="nonzero" fill-opacity="1" /><path clip-path="url(#clip320)" d="M28.3562 598.285 L28.3562 570.467 L33.7034 570.467 L59.3254 592.492 L59.3254 570.467 L64.0042 570.467 L64.0042 599.081 L58.657 599.081 L33.035 577.055 L33.035 598.285 L28.3562 598.285 Z" fill="#000000" fill-rule="nonzero" fill-opacity="1" /><path clip-path="url(#clip320)" d="M44.7161 531.031 L47.5806 531.031 L47.5806 557.958 Q53.6281 557.576 56.8109 554.33 Q59.9619 551.051 59.9619 545.227 Q59.9619 541.853 59.1344 538.702 Q58.3069 535.519 56.6518 532.4 L62.1899 532.4 Q63.5267 535.551 64.227 538.861 Q64.9272 542.171 64.9272 545.577 Q64.9272 554.107 59.9619 559.104 Q54.9967 564.069 46.5303 564.069 Q37.7774 564.069 32.6531 559.359 Q27.4968 554.616 27.4968 546.595 Q27.4968 539.402 32.1438 535.233 Q36.7589 531.031 44.7161 531.031 M42.9973 536.888 Q38.1912 536.951 35.3266 539.593 Q32.4621 542.203 32.4621 546.532 Q32.4621 551.433 35.2312 554.393 Q38.0002 557.322 43.0292 557.767 L42.9973 536.888 Z" fill="#000000" fill-rule="nonzero" fill-opacity="1" /><path clip-path="url(#clip320)" d="M603.32 43.6931 L603.32 65.8515 L616.445 65.8515 Q623.048 65.8515 626.208 63.1374 Q629.408 60.3828 629.408 54.752 Q629.408 49.0808 626.208 46.4072 Q623.048 43.6931 616.445 43.6931 L603.32 43.6931 M603.32 18.8205 L603.32 37.0496 L615.432 37.0496 Q621.427 37.0496 624.344 34.8216 Q627.301 32.5531 627.301 27.935 Q627.301 23.3575 624.344 21.089 Q621.427 18.8205 615.432 18.8205 L603.32 18.8205 M595.137 12.096 L616.04 12.096 Q625.397 12.096 630.461 15.9849 Q635.525 19.8737 635.525 27.0438 Q635.525 32.5936 632.932 35.8748 Q630.339 39.156 625.316 39.9662 Q631.352 41.2625 634.674 45.3944 Q638.036 49.4858 638.036 55.6432 Q638.036 63.745 632.527 68.1605 Q627.018 72.576 616.85 72.576 L595.137 72.576 L595.137 12.096 Z" fill="#000000" fill-rule="nonzero" fill-opacity="1" /><path clip-path="url(#clip320)" d="M651.728 27.2059 L659.182 27.2059 L659.182 72.576 L651.728 72.576 L651.728 27.2059 M651.728 9.54393 L659.182 9.54393 L659.182 18.9825 L651.728 18.9825 L651.728 9.54393 Z" fill="#000000" fill-rule="nonzero" fill-opacity="1" /><path clip-path="url(#clip320)" d="M701.068 34.1734 Q699.812 33.4443 698.314 33.1202 Q696.855 32.7556 695.073 32.7556 Q688.754 32.7556 685.351 36.8875 Q681.989 40.9789 681.989 48.6757 L681.989 72.576 L674.494 72.576 L674.494 27.2059 L681.989 27.2059 L681.989 34.2544 Q684.338 30.1225 688.105 28.1376 Q691.873 26.1121 697.26 26.1121 Q698.03 26.1121 698.962 26.2337 Q699.894 26.3147 701.028 26.5172 L701.068 34.1734 Z" fill="#000000" fill-rule="nonzero" fill-opacity="1" /><path clip-path="url(#clip320)" d="M716.259 14.324 L716.259 27.2059 L731.612 27.2059 L731.612 32.9987 L716.259 32.9987 L716.259 57.6282 Q716.259 63.1779 717.758 64.7578 Q719.297 66.3376 723.956 66.3376 L731.612 66.3376 L731.612 72.576 L723.956 72.576 Q715.327 72.576 712.046 69.3758 Q708.765 66.1351 708.765 57.6282 L708.765 32.9987 L703.296 32.9987 L703.296 27.2059 L708.765 27.2059 L708.765 14.324 L716.259 14.324 Z" fill="#000000" fill-rule="nonzero" fill-opacity="1" /><path clip-path="url(#clip320)" d="M779.129 45.1919 L779.129 72.576 L771.676 72.576 L771.676 45.4349 Q771.676 38.994 769.164 35.7938 Q766.652 32.5936 761.629 32.5936 Q755.593 32.5936 752.11 36.4419 Q748.626 40.2903 748.626 46.9338 L748.626 72.576 L741.132 72.576 L741.132 9.54393 L748.626 9.54393 L748.626 34.2544 Q751.299 30.163 754.905 28.1376 Q758.551 26.1121 763.29 26.1121 Q771.108 26.1121 775.119 30.9732 Q779.129 35.7938 779.129 45.1919 Z" fill="#000000" fill-rule="nonzero" fill-opacity="1" /><path clip-path="url(#clip320)" d="M790.229 46.9338 L823.608 46.9338 L823.608 52.7671 L790.229 52.7671 L790.229 46.9338 Z" fill="#000000" fill-rule="nonzero" fill-opacity="1" /><path clip-path="url(#clip320)" d="M865.332 34.0924 L865.332 9.54393 L872.786 9.54393 L872.786 72.576 L865.332 72.576 L865.332 65.7705 Q862.983 69.8214 859.378 71.8063 Q855.813 73.7508 850.79 73.7508 Q842.566 73.7508 837.381 67.1883 Q832.237 60.6258 832.237 49.9314 Q832.237 39.2371 837.381 32.6746 Q842.566 26.1121 850.79 26.1121 Q855.813 26.1121 859.378 28.0971 Q862.983 30.0415 865.332 34.0924 M839.933 49.9314 Q839.933 58.1548 843.296 62.8538 Q846.698 67.5124 852.613 67.5124 Q858.527 67.5124 861.93 62.8538 Q865.332 58.1548 865.332 49.9314 Q865.332 41.7081 861.93 37.0496 Q858.527 32.3505 852.613 32.3505 Q846.698 32.3505 843.296 37.0496 Q839.933 41.7081 839.933 49.9314 Z" fill="#000000" fill-rule="nonzero" fill-opacity="1" /><path clip-path="url(#clip320)" d="M926.947 48.0275 L926.947 51.6733 L892.676 51.6733 Q893.162 59.3701 897.294 63.421 Q901.467 67.4314 908.88 67.4314 Q913.174 67.4314 917.184 66.3781 Q921.235 65.3249 925.205 63.2184 L925.205 70.267 Q921.194 71.9684 916.981 72.8596 Q912.769 73.7508 908.434 73.7508 Q897.578 73.7508 891.218 67.4314 Q884.898 61.1119 884.898 50.3365 Q884.898 39.1965 890.894 32.6746 Q896.929 26.1121 907.138 26.1121 Q916.293 26.1121 921.599 32.0264 Q926.947 37.9003 926.947 48.0275 M919.493 45.84 Q919.412 39.7232 916.05 36.0774 Q912.728 32.4315 907.219 32.4315 Q900.98 32.4315 897.213 35.9558 Q893.486 39.4801 892.919 45.8805 L919.493 45.84 Z" fill="#000000" fill-rule="nonzero" fill-opacity="1" /><path clip-path="url(#clip320)" d="M959.8 49.7694 Q950.766 49.7694 947.282 51.8354 Q943.798 53.9013 943.798 58.8839 Q943.798 62.8538 946.391 65.2034 Q949.024 67.5124 953.521 67.5124 Q959.719 67.5124 963.445 63.1374 Q967.213 58.7219 967.213 51.4303 L967.213 49.7694 L959.8 49.7694 M974.666 46.6907 L974.666 72.576 L967.213 72.576 L967.213 65.6895 Q964.661 69.8214 960.853 71.8063 Q957.045 73.7508 951.536 73.7508 Q944.568 73.7508 940.436 69.8619 Q936.345 65.9325 936.345 59.3701 Q936.345 51.7138 941.449 47.825 Q946.594 43.9361 956.761 43.9361 L967.213 43.9361 L967.213 43.2069 Q967.213 38.0623 963.81 35.2672 Q960.448 32.4315 954.331 32.4315 Q950.442 32.4315 946.756 33.3632 Q943.069 34.295 939.667 36.1584 L939.667 29.2718 Q943.758 27.692 947.606 26.9223 Q951.455 26.1121 955.1 26.1121 Q964.944 26.1121 969.805 31.2163 Q974.666 36.3204 974.666 46.6907 Z" fill="#000000" fill-rule="nonzero" fill-opacity="1" /><path clip-path="url(#clip320)" d="M997.392 14.324 L997.392 27.2059 L1012.74 27.2059 L1012.74 32.9987 L997.392 32.9987 L997.392 57.6282 Q997.392 63.1779 998.891 64.7578 Q1000.43 66.3376 1005.09 66.3376 L1012.74 66.3376 L1012.74 72.576 L1005.09 72.576 Q996.46 72.576 993.179 69.3758 Q989.898 66.1351 989.898 57.6282 L989.898 32.9987 L984.429 32.9987 L984.429 27.2059 L989.898 27.2059 L989.898 14.324 L997.392 14.324 Z" fill="#000000" fill-rule="nonzero" fill-opacity="1" /><path clip-path="url(#clip320)" d="M1060.26 45.1919 L1060.26 72.576 L1052.81 72.576 L1052.81 45.4349 Q1052.81 38.994 1050.3 35.7938 Q1047.79 32.5936 1042.76 32.5936 Q1036.73 32.5936 1033.24 36.4419 Q1029.76 40.2903 1029.76 46.9338 L1029.76 72.576 L1022.26 72.576 L1022.26 9.54393 L1029.76 9.54393 L1029.76 34.2544 Q1032.43 30.163 1036.04 28.1376 Q1039.68 26.1121 1044.42 26.1121 Q1052.24 26.1121 1056.25 30.9732 Q1060.26 35.7938 1060.26 45.1919 Z" fill="#000000" fill-rule="nonzero" fill-opacity="1" /><path clip-path="url(#clip320)" d="M1077.03 62.2867 L1085.58 62.2867 L1085.58 72.576 L1077.03 72.576 L1077.03 62.2867 M1077.03 29.6769 L1085.58 29.6769 L1085.58 39.9662 L1077.03 39.9662 L1077.03 29.6769 Z" fill="#000000" fill-rule="nonzero" fill-opacity="1" /><path clip-path="url(#clip320)" d="M1129.78 12.096 L1137.96 12.096 L1137.96 72.576 L1129.78 72.576 L1129.78 12.096 Z" fill="#000000" fill-rule="nonzero" fill-opacity="1" /><path clip-path="url(#clip320)" d="M1162.43 43.6931 L1162.43 65.8515 L1175.55 65.8515 Q1182.15 65.8515 1185.31 63.1374 Q1188.51 60.3828 1188.51 54.752 Q1188.51 49.0808 1185.31 46.4072 Q1182.15 43.6931 1175.55 43.6931 L1162.43 43.6931 M1162.43 18.8205 L1162.43 37.0496 L1174.54 37.0496 Q1180.53 37.0496 1183.45 34.8216 Q1186.41 32.5531 1186.41 27.935 Q1186.41 23.3575 1183.45 21.089 Q1180.53 18.8205 1174.54 18.8205 L1162.43 18.8205 M1154.24 12.096 L1175.15 12.096 Q1184.5 12.096 1189.57 15.9849 Q1194.63 19.8737 1194.63 27.0438 Q1194.63 32.5936 1192.04 35.8748 Q1189.45 39.156 1184.42 39.9662 Q1190.46 41.2625 1193.78 45.3944 Q1197.14 49.4858 1197.14 55.6432 Q1197.14 63.745 1191.63 68.1605 Q1186.12 72.576 1175.96 72.576 L1154.24 72.576 L1154.24 12.096 Z" fill="#000000" fill-rule="nonzero" fill-opacity="1" /><path clip-path="url(#clip320)" d="M1211.16 12.096 L1223.35 12.096 L1238.79 53.2532 L1254.3 12.096 L1266.49 12.096 L1266.49 72.576 L1258.51 72.576 L1258.51 19.4686 L1242.92 60.9499 L1234.69 60.9499 L1219.1 19.4686 L1219.1 72.576 L1211.16 72.576 L1211.16 12.096 Z" fill="#000000" fill-rule="nonzero" fill-opacity="1" /><path clip-path="url(#clip320)" d="M1303.44 27.2059 L1311.34 27.2059 L1325.52 65.2844 L1339.69 27.2059 L1347.59 27.2059 L1330.58 72.576 L1320.45 72.576 L1303.44 27.2059 Z" fill="#000000" fill-rule="nonzero" fill-opacity="1" /><path clip-path="url(#clip320)" d="M1386.81 28.5427 L1386.81 35.5912 Q1383.65 33.9709 1380.24 33.1607 Q1376.84 32.3505 1373.19 32.3505 Q1367.64 32.3505 1364.85 34.0519 Q1362.09 35.7533 1362.09 39.156 Q1362.09 41.7486 1364.08 43.2475 Q1366.06 44.7058 1372.06 46.0426 L1374.61 46.6097 Q1382.55 48.3111 1385.87 51.4303 Q1389.24 54.509 1389.24 60.0587 Q1389.24 66.3781 1384.21 70.0644 Q1379.23 73.7508 1370.48 73.7508 Q1366.83 73.7508 1362.86 73.0216 Q1358.94 72.3329 1354.56 70.9151 L1354.56 63.2184 Q1358.69 65.3654 1362.7 66.4591 Q1366.71 67.5124 1370.64 67.5124 Q1375.91 67.5124 1378.74 65.73 Q1381.58 63.9071 1381.58 60.6258 Q1381.58 57.5877 1379.51 55.9673 Q1377.49 54.3469 1370.56 52.8481 L1367.97 52.2405 Q1361.04 50.7821 1357.96 47.7845 Q1354.88 44.7463 1354.88 39.4801 Q1354.88 33.0797 1359.42 29.5959 Q1363.96 26.1121 1372.3 26.1121 Q1376.44 26.1121 1380.08 26.7198 Q1383.73 27.3274 1386.81 28.5427 Z" fill="#000000" fill-rule="nonzero" fill-opacity="1" /><path clip-path="url(#clip320)" d="M1427.8 12.096 L1438.82 12.096 L1465.64 62.6918 L1465.64 12.096 L1473.58 12.096 L1473.58 72.576 L1462.56 72.576 L1435.74 21.9802 L1435.74 72.576 L1427.8 72.576 L1427.8 12.096 Z" fill="#000000" fill-rule="nonzero" fill-opacity="1" /><path clip-path="url(#clip320)" d="M1504.81 45.1514 Q1502.78 41.6676 1498.69 41.6676 Q1494.6 41.6676 1492.57 45.1514 Q1490.51 48.6352 1490.51 55.6027 Q1490.51 62.6108 1492.57 66.0946 Q1494.6 69.5783 1498.69 69.5783 Q1502.78 69.5783 1504.81 66.0946 Q1506.87 62.6108 1506.87 55.6027 Q1506.87 48.6352 1504.81 45.1514 M1498.69 38.0623 Q1505.21 38.0623 1508.66 42.5588 Q1512.1 47.0553 1512.1 55.6027 Q1512.1 64.1906 1508.66 68.6871 Q1505.21 73.1836 1498.69 73.1836 Q1492.13 73.1836 1488.69 68.6871 Q1485.24 64.1906 1485.24 55.6027 Q1485.24 47.0553 1488.69 42.5588 Q1492.13 38.0623 1498.69 38.0623 Z" fill="#000000" fill-rule="nonzero" fill-opacity="1" /><path clip-path="url(#clip320)" d="M1587.97 48.0275 L1587.97 51.6733 L1553.7 51.6733 Q1554.19 59.3701 1558.32 63.421 Q1562.49 67.4314 1569.91 67.4314 Q1574.2 67.4314 1578.21 66.3781 Q1582.26 65.3249 1586.23 63.2184 L1586.23 70.267 Q1582.22 71.9684 1578.01 72.8596 Q1573.8 73.7508 1569.46 73.7508 Q1558.6 73.7508 1552.24 67.4314 Q1545.92 61.1119 1545.92 50.3365 Q1545.92 39.1965 1551.92 32.6746 Q1557.96 26.1121 1568.16 26.1121 Q1577.32 26.1121 1582.63 32.0264 Q1587.97 37.9003 1587.97 48.0275 M1580.52 45.84 Q1580.44 39.7232 1577.08 36.0774 Q1573.75 32.4315 1568.25 32.4315 Q1562.01 32.4315 1558.24 35.9558 Q1554.51 39.4801 1553.95 45.8805 L1580.52 45.84 Z" fill="#000000" fill-rule="nonzero" fill-opacity="1" /><path clip-path="url(#clip320)" d="M1636.46 27.2059 L1620.06 49.2833 L1637.31 72.576 L1628.52 72.576 L1615.32 54.752 L1602.11 72.576 L1593.32 72.576 L1610.94 48.8377 L1594.82 27.2059 L1603.61 27.2059 L1615.64 43.369 L1627.67 27.2059 L1636.46 27.2059 Z" fill="#000000" fill-rule="nonzero" fill-opacity="1" /><path clip-path="url(#clip320)" d="M1655.06 65.7705 L1655.06 89.8329 L1647.56 89.8329 L1647.56 27.2059 L1655.06 27.2059 L1655.06 34.0924 Q1657.41 30.0415 1660.97 28.0971 Q1664.58 26.1121 1669.56 26.1121 Q1677.82 26.1121 1682.97 32.6746 Q1688.15 39.2371 1688.15 49.9314 Q1688.15 60.6258 1682.97 67.1883 Q1677.82 73.7508 1669.56 73.7508 Q1664.58 73.7508 1660.97 71.8063 Q1657.41 69.8214 1655.06 65.7705 M1680.41 49.9314 Q1680.41 41.7081 1677.01 37.0496 Q1673.65 32.3505 1667.74 32.3505 Q1661.82 32.3505 1658.42 37.0496 Q1655.06 41.7081 1655.06 49.9314 Q1655.06 58.1548 1658.42 62.8538 Q1661.82 67.5124 1667.74 67.5124 Q1673.65 67.5124 1677.01 62.8538 Q1680.41 58.1548 1680.41 49.9314 Z" fill="#000000" fill-rule="nonzero" fill-opacity="1" /><path clip-path="url(#clip320)" d="M1718.41 9.62495 Q1712.98 18.942 1710.35 28.0566 Q1707.72 37.1711 1707.72 46.5287 Q1707.72 55.8863 1710.35 65.0818 Q1713.02 74.2369 1718.41 83.5134 L1711.93 83.5134 Q1705.85 73.9938 1702.82 64.7983 Q1699.82 55.6027 1699.82 46.5287 Q1699.82 37.4952 1702.82 28.3401 Q1705.81 19.1851 1711.93 9.62495 L1718.41 9.62495 Z" fill="#000000" fill-rule="nonzero" fill-opacity="1" /><path clip-path="url(#clip320)" d="M1750.78 9.62495 Q1745.35 18.942 1742.72 28.0566 Q1740.08 37.1711 1740.08 46.5287 Q1740.08 55.8863 1742.72 65.0818 Q1745.39 74.2369 1750.78 83.5134 L1744.3 83.5134 Q1738.22 73.9938 1735.18 64.7983 Q1732.19 55.6027 1732.19 46.5287 Q1732.19 37.4952 1735.18 28.3401 Q1738.18 19.1851 1744.3 9.62495 L1750.78 9.62495 Z" fill="#000000" fill-rule="nonzero" fill-opacity="1" /><path clip-path="url(#clip320)" d="M1797.81 49.9314 Q1797.81 41.7081 1794.41 37.0496 Q1791.05 32.3505 1785.13 32.3505 Q1779.22 32.3505 1775.81 37.0496 Q1772.45 41.7081 1772.45 49.9314 Q1772.45 58.1548 1775.81 62.8538 Q1779.22 67.5124 1785.13 67.5124 Q1791.05 67.5124 1794.41 62.8538 Q1797.81 58.1548 1797.81 49.9314 M1772.45 34.0924 Q1774.8 30.0415 1778.37 28.0971 Q1781.97 26.1121 1786.95 26.1121 Q1795.22 26.1121 1800.36 32.6746 Q1805.55 39.2371 1805.55 49.9314 Q1805.55 60.6258 1800.36 67.1883 Q1795.22 73.7508 1786.95 73.7508 Q1781.97 73.7508 1778.37 71.8063 Q1774.8 69.8214 1772.45 65.7705 L1772.45 72.576 L1764.96 72.576 L1764.96 9.54393 L1772.45 9.54393 L1772.45 34.0924 Z" fill="#000000" fill-rule="nonzero" fill-opacity="1" /><path clip-path="url(#clip320)" d="M1818.87 43.1259 L1870.81 43.1259 L1870.81 50.0125 L1818.87 50.0125 L1818.87 43.1259 Z" fill="#000000" fill-rule="nonzero" fill-opacity="1" /><path clip-path="url(#clip320)" d="M1917.27 34.0924 L1917.27 9.54393 L1924.72 9.54393 L1924.72 72.576 L1917.27 72.576 L1917.27 65.7705 Q1914.92 69.8214 1911.32 71.8063 Q1907.75 73.7508 1902.73 73.7508 Q1894.51 73.7508 1889.32 67.1883 Q1884.18 60.6258 1884.18 49.9314 Q1884.18 39.2371 1889.32 32.6746 Q1894.51 26.1121 1902.73 26.1121 Q1907.75 26.1121 1911.32 28.0971 Q1914.92 30.0415 1917.27 34.0924 M1891.87 49.9314 Q1891.87 58.1548 1895.23 62.8538 Q1898.64 67.5124 1904.55 67.5124 Q1910.47 67.5124 1913.87 62.8538 Q1917.27 58.1548 1917.27 49.9314 Q1917.27 41.7081 1913.87 37.0496 Q1910.47 32.3505 1904.55 32.3505 Q1898.64 32.3505 1895.23 37.0496 Q1891.87 41.7081 1891.87 49.9314 Z" fill="#000000" fill-rule="nonzero" fill-opacity="1" /><path clip-path="url(#clip320)" d="M1938.9 9.62495 L1945.38 9.62495 Q1951.46 19.1851 1954.46 28.3401 Q1957.5 37.4952 1957.5 46.5287 Q1957.5 55.6027 1954.46 64.7983 Q1951.46 73.9938 1945.38 83.5134 L1938.9 83.5134 Q1944.29 74.2369 1946.92 65.0818 Q1949.6 55.8863 1949.6 46.5287 Q1949.6 37.1711 1946.92 28.0566 Q1944.29 18.942 1938.9 9.62495 Z" fill="#000000" fill-rule="nonzero" fill-opacity="1" /><path clip-path="url(#clip320)" d="M1979.82 14.324 L1979.82 27.2059 L1995.17 27.2059 L1995.17 32.9987 L1979.82 32.9987 L1979.82 57.6282 Q1979.82 63.1779 1981.32 64.7578 Q1982.86 66.3376 1987.51 66.3376 L1995.17 66.3376 L1995.17 72.576 L1987.51 72.576 Q1978.89 72.576 1975.6 69.3758 Q1972.32 66.1351 1972.32 57.6282 L1972.32 32.9987 L1966.85 32.9987 L1966.85 27.2059 L1972.32 27.2059 L1972.32 14.324 L1979.82 14.324 Z" fill="#000000" fill-rule="nonzero" fill-opacity="1" /><path clip-path="url(#clip320)" d="M2003.8 9.62495 L2010.28 9.62495 Q2016.36 19.1851 2019.35 28.3401 Q2022.39 37.4952 2022.39 46.5287 Q2022.39 55.6027 2019.35 64.7983 Q2016.36 73.9938 2010.28 83.5134 L2003.8 83.5134 Q2009.19 74.2369 2011.82 65.0818 Q2014.49 55.8863 2014.49 46.5287 Q2014.49 37.1711 2011.82 28.0566 Q2009.19 18.942 2003.8 9.62495 Z" fill="#000000" fill-rule="nonzero" fill-opacity="1" /><circle clip-path="url(#clip321)" cx="323.867" cy="1386.4" r="14.4" fill="#009af9" fill-rule="evenodd" fill-opacity="1" stroke="#000000" stroke-opacity="1" stroke-width="3.2"/>
<circle clip-path="url(#clip321)" cx="488.017" cy="1323.13" r="14.4" fill="#009af9" fill-rule="evenodd" fill-opacity="1" stroke="#000000" stroke-opacity="1" stroke-width="3.2"/>
<circle clip-path="url(#clip321)" cx="652.166" cy="1250.29" r="14.4" fill="#009af9" fill-rule="evenodd" fill-opacity="1" stroke="#000000" stroke-opacity="1" stroke-width="3.2"/>
<circle clip-path="url(#clip321)" cx="816.316" cy="1153.94" r="14.4" fill="#009af9" fill-rule="evenodd" fill-opacity="1" stroke="#000000" stroke-opacity="1" stroke-width="3.2"/>
<circle clip-path="url(#clip321)" cx="980.466" cy="1072.97" r="14.4" fill="#009af9" fill-rule="evenodd" fill-opacity="1" stroke="#000000" stroke-opacity="1" stroke-width="3.2"/>
<circle clip-path="url(#clip321)" cx="1144.62" cy="971.685" r="14.4" fill="#009af9" fill-rule="evenodd" fill-opacity="1" stroke="#000000" stroke-opacity="1" stroke-width="3.2"/>
<circle clip-path="url(#clip321)" cx="1308.76" cy="870.982" r="14.4" fill="#009af9" fill-rule="evenodd" fill-opacity="1" stroke="#000000" stroke-opacity="1" stroke-width="3.2"/>
<circle clip-path="url(#clip321)" cx="1472.91" cy="765.635" r="14.4" fill="#009af9" fill-rule="evenodd" fill-opacity="1" stroke="#000000" stroke-opacity="1" stroke-width="3.2"/>
<circle clip-path="url(#clip321)" cx="1637.06" cy="670.737" r="14.4" fill="#009af9" fill-rule="evenodd" fill-opacity="1" stroke="#000000" stroke-opacity="1" stroke-width="3.2"/>
<circle clip-path="url(#clip321)" cx="1801.21" cy="549.138" r="14.4" fill="#009af9" fill-rule="evenodd" fill-opacity="1" stroke="#000000" stroke-opacity="1" stroke-width="3.2"/>
<circle clip-path="url(#clip321)" cx="1965.36" cy="424.058" r="14.4" fill="#009af9" fill-rule="evenodd" fill-opacity="1" stroke="#000000" stroke-opacity="1" stroke-width="3.2"/>
<circle clip-path="url(#clip321)" cx="2129.51" cy="299.848" r="14.4" fill="#009af9" fill-rule="evenodd" fill-opacity="1" stroke="#000000" stroke-opacity="1" stroke-width="3.2"/>
<circle clip-path="url(#clip321)" cx="2293.66" cy="160.256" r="14.4" fill="#009af9" fill-rule="evenodd" fill-opacity="1" stroke="#000000" stroke-opacity="1" stroke-width="3.2"/>
<polyline clip-path="url(#clip321)" style="stroke:#e26f46; stroke-linecap:round; stroke-linejoin:round; stroke-width:8; stroke-opacity:1; fill:none" points="323.867,1386.4 488.017,1312 652.166,1233.79 816.316,1151.57 980.466,1065.13 1144.62,974.26 1308.76,878.732 1472.91,778.307 1637.06,672.732 1801.21,561.745 1965.36,445.067 2129.51,322.407 2293.66,193.458 "/>
<path clip-path="url(#clip320)" d="M334.373 322.316 L873.007 322.316 L873.007 166.796 L334.373 166.796  Z" fill="#ffffff" fill-rule="evenodd" fill-opacity="1"/>
<polyline clip-path="url(#clip320)" style="stroke:#000000; stroke-linecap:round; stroke-linejoin:round; stroke-width:4; stroke-opacity:1; fill:none" points="334.373,322.316 873.007,322.316 873.007,166.796 334.373,166.796 334.373,322.316 "/>
<circle clip-path="url(#clip320)" cx="427.172" cy="218.636" r="20.48" fill="#009af9" fill-rule="evenodd" fill-opacity="1" stroke="#000000" stroke-opacity="1" stroke-width="4.55111"/>
<path clip-path="url(#clip320)" d="M519.971 201.356 L524.647 201.356 L524.647 235.916 L519.971 235.916 L519.971 201.356 Z" fill="#000000" fill-rule="nonzero" fill-opacity="1" /><path clip-path="url(#clip320)" d="M538.629 219.411 L538.629 232.073 L546.129 232.073 Q549.902 232.073 551.707 230.522 Q553.536 228.948 553.536 225.731 Q553.536 222.49 551.707 220.962 Q549.902 219.411 546.129 219.411 L538.629 219.411 M538.629 205.198 L538.629 215.615 L545.55 215.615 Q548.976 215.615 550.642 214.342 Q552.332 213.045 552.332 210.407 Q552.332 207.791 550.642 206.495 Q548.976 205.198 545.55 205.198 L538.629 205.198 M533.953 201.356 L545.897 201.356 Q551.244 201.356 554.138 203.578 Q557.031 205.8 557.031 209.897 Q557.031 213.069 555.55 214.944 Q554.068 216.819 551.198 217.282 Q554.647 218.022 556.545 220.383 Q558.466 222.721 558.466 226.24 Q558.466 230.869 555.318 233.393 Q552.17 235.916 546.36 235.916 L533.953 235.916 L533.953 201.356 Z" fill="#000000" fill-rule="nonzero" fill-opacity="1" /><path clip-path="url(#clip320)" d="M566.476 201.356 L573.443 201.356 L582.263 224.874 L591.128 201.356 L598.096 201.356 L598.096 235.916 L593.536 235.916 L593.536 205.569 L584.624 229.272 L579.925 229.272 L571.013 205.569 L571.013 235.916 L566.476 235.916 L566.476 201.356 Z" fill="#000000" fill-rule="nonzero" fill-opacity="1" /><polyline clip-path="url(#clip320)" style="stroke:#e26f46; stroke-linecap:round; stroke-linejoin:round; stroke-width:8; stroke-opacity:1; fill:none" points="357.573,270.476 496.771,270.476 "/>
<path clip-path="url(#clip320)" d="M533.374 274.723 Q528.212 274.723 526.221 275.904 Q524.231 277.084 524.231 279.932 Q524.231 282.2 525.712 283.543 Q527.217 284.862 529.786 284.862 Q533.328 284.862 535.457 282.362 Q537.61 279.839 537.61 275.672 L537.61 274.723 L533.374 274.723 M541.869 272.964 L541.869 287.756 L537.61 287.756 L537.61 283.821 Q536.152 286.182 533.976 287.316 Q531.8 288.427 528.652 288.427 Q524.67 288.427 522.309 286.205 Q519.971 283.959 519.971 280.209 Q519.971 275.834 522.888 273.612 Q525.828 271.39 531.638 271.39 L537.61 271.39 L537.61 270.973 Q537.61 268.034 535.666 266.436 Q533.744 264.816 530.249 264.816 Q528.027 264.816 525.92 265.348 Q523.814 265.881 521.869 266.946 L521.869 263.01 Q524.207 262.108 526.406 261.668 Q528.606 261.205 530.689 261.205 Q536.314 261.205 539.092 264.122 Q541.869 267.038 541.869 272.964 Z" fill="#000000" fill-rule="nonzero" fill-opacity="1" /><path clip-path="url(#clip320)" d="M572.193 272.108 L572.193 287.756 L567.934 287.756 L567.934 272.247 Q567.934 268.566 566.499 266.737 Q565.064 264.909 562.193 264.909 Q558.744 264.909 556.754 267.108 Q554.763 269.307 554.763 273.103 L554.763 287.756 L550.48 287.756 L550.48 261.83 L554.763 261.83 L554.763 265.858 Q556.291 263.52 558.351 262.362 Q560.434 261.205 563.142 261.205 Q567.61 261.205 569.902 263.983 Q572.193 266.737 572.193 272.108 Z" fill="#000000" fill-rule="nonzero" fill-opacity="1" /><path clip-path="url(#clip320)" d="M592.471 274.723 Q587.309 274.723 585.318 275.904 Q583.327 277.084 583.327 279.932 Q583.327 282.2 584.809 283.543 Q586.314 284.862 588.883 284.862 Q592.425 284.862 594.554 282.362 Q596.707 279.839 596.707 275.672 L596.707 274.723 L592.471 274.723 M600.966 272.964 L600.966 287.756 L596.707 287.756 L596.707 283.821 Q595.249 286.182 593.073 287.316 Q590.897 288.427 587.749 288.427 Q583.767 288.427 581.406 286.205 Q579.068 283.959 579.068 280.209 Q579.068 275.834 581.985 273.612 Q584.925 271.39 590.735 271.39 L596.707 271.39 L596.707 270.973 Q596.707 268.034 594.763 266.436 Q592.841 264.816 589.346 264.816 Q587.124 264.816 585.017 265.348 Q582.911 265.881 580.966 266.946 L580.966 263.01 Q583.304 262.108 585.503 261.668 Q587.702 261.205 589.786 261.205 Q595.411 261.205 598.188 264.122 Q600.966 267.038 600.966 272.964 Z" fill="#000000" fill-rule="nonzero" fill-opacity="1" /><path clip-path="url(#clip320)" d="M609.739 251.737 L613.999 251.737 L613.999 287.756 L609.739 287.756 L609.739 251.737 Z" fill="#000000" fill-rule="nonzero" fill-opacity="1" /><path clip-path="url(#clip320)" d="M633.698 290.163 Q631.892 294.793 630.179 296.205 Q628.466 297.617 625.596 297.617 L622.193 297.617 L622.193 294.052 L624.693 294.052 Q626.452 294.052 627.424 293.219 Q628.397 292.385 629.577 289.283 L630.341 287.339 L619.855 261.83 L624.369 261.83 L632.471 282.108 L640.572 261.83 L645.086 261.83 L633.698 290.163 Z" fill="#000000" fill-rule="nonzero" fill-opacity="1" /><path clip-path="url(#clip320)" d="M655.179 254.469 L655.179 261.83 L663.952 261.83 L663.952 265.14 L655.179 265.14 L655.179 279.214 Q655.179 282.385 656.035 283.288 Q656.915 284.191 659.577 284.191 L663.952 284.191 L663.952 287.756 L659.577 287.756 Q654.646 287.756 652.772 285.927 Q650.897 284.075 650.897 279.214 L650.897 265.14 L647.772 265.14 L647.772 261.83 L650.897 261.83 L650.897 254.469 L655.179 254.469 Z" fill="#000000" fill-rule="nonzero" fill-opacity="1" /><path clip-path="url(#clip320)" d="M669.554 261.83 L673.813 261.83 L673.813 287.756 L669.554 287.756 L669.554 261.83 M669.554 251.737 L673.813 251.737 L673.813 257.131 L669.554 257.131 L669.554 251.737 Z" fill="#000000" fill-rule="nonzero" fill-opacity="1" /><path clip-path="url(#clip320)" d="M701.382 262.825 L701.382 266.807 Q699.577 265.811 697.748 265.325 Q695.943 264.816 694.091 264.816 Q689.947 264.816 687.656 267.455 Q685.364 270.071 685.364 274.816 Q685.364 279.561 687.656 282.2 Q689.947 284.816 694.091 284.816 Q695.943 284.816 697.748 284.33 Q699.577 283.821 701.382 282.825 L701.382 286.76 Q699.6 287.594 697.679 288.01 Q695.781 288.427 693.628 288.427 Q687.771 288.427 684.322 284.746 Q680.873 281.066 680.873 274.816 Q680.873 268.473 684.345 264.839 Q687.841 261.205 693.906 261.205 Q695.873 261.205 697.748 261.622 Q699.623 262.015 701.382 262.825 Z" fill="#000000" fill-rule="nonzero" fill-opacity="1" /><path clip-path="url(#clip320)" d="M744.044 266.807 Q745.641 263.936 747.864 262.571 Q750.086 261.205 753.095 261.205 Q757.146 261.205 759.345 264.052 Q761.544 266.876 761.544 272.108 L761.544 287.756 L757.262 287.756 L757.262 272.247 Q757.262 268.52 755.942 266.714 Q754.623 264.909 751.914 264.909 Q748.604 264.909 746.683 267.108 Q744.762 269.307 744.762 273.103 L744.762 287.756 L740.479 287.756 L740.479 272.247 Q740.479 268.497 739.16 266.714 Q737.84 264.909 735.086 264.909 Q731.822 264.909 729.901 267.131 Q727.979 269.33 727.979 273.103 L727.979 287.756 L723.697 287.756 L723.697 261.83 L727.979 261.83 L727.979 265.858 Q729.438 263.473 731.475 262.339 Q733.512 261.205 736.313 261.205 Q739.137 261.205 741.104 262.64 Q743.095 264.075 744.044 266.807 Z" fill="#000000" fill-rule="nonzero" fill-opacity="1" /><path clip-path="url(#clip320)" d="M792.215 273.728 L792.215 275.811 L772.632 275.811 Q772.91 280.209 775.271 282.524 Q777.655 284.816 781.891 284.816 Q784.345 284.816 786.637 284.214 Q788.951 283.612 791.22 282.409 L791.22 286.436 Q788.928 287.408 786.521 287.918 Q784.113 288.427 781.637 288.427 Q775.433 288.427 771.799 284.816 Q768.188 281.205 768.188 275.047 Q768.188 268.682 771.613 264.955 Q775.063 261.205 780.896 261.205 Q786.127 261.205 789.16 264.585 Q792.215 267.941 792.215 273.728 M787.956 272.478 Q787.91 268.983 785.988 266.899 Q784.09 264.816 780.942 264.816 Q777.377 264.816 775.225 266.83 Q773.095 268.844 772.771 272.501 L787.956 272.478 Z" fill="#000000" fill-rule="nonzero" fill-opacity="1" /><path clip-path="url(#clip320)" d="M810.988 274.723 Q805.826 274.723 803.836 275.904 Q801.845 277.084 801.845 279.932 Q801.845 282.2 803.326 283.543 Q804.831 284.862 807.4 284.862 Q810.942 284.862 813.072 282.362 Q815.224 279.839 815.224 275.672 L815.224 274.723 L810.988 274.723 M819.484 272.964 L819.484 287.756 L815.224 287.756 L815.224 283.821 Q813.766 286.182 811.59 287.316 Q809.414 288.427 806.266 288.427 Q802.285 288.427 799.923 286.205 Q797.586 283.959 797.586 280.209 Q797.586 275.834 800.502 273.612 Q803.442 271.39 809.252 271.39 L815.224 271.39 L815.224 270.973 Q815.224 268.034 813.28 266.436 Q811.359 264.816 807.863 264.816 Q805.641 264.816 803.535 265.348 Q801.428 265.881 799.484 266.946 L799.484 263.01 Q801.822 262.108 804.021 261.668 Q806.22 261.205 808.303 261.205 Q813.928 261.205 816.706 264.122 Q819.484 267.038 819.484 272.964 Z" fill="#000000" fill-rule="nonzero" fill-opacity="1" /><path clip-path="url(#clip320)" d="M849.807 272.108 L849.807 287.756 L845.548 287.756 L845.548 272.247 Q845.548 268.566 844.113 266.737 Q842.678 264.909 839.808 264.909 Q836.358 264.909 834.368 267.108 Q832.377 269.307 832.377 273.103 L832.377 287.756 L828.095 287.756 L828.095 261.83 L832.377 261.83 L832.377 265.858 Q833.905 263.52 835.965 262.362 Q838.048 261.205 840.757 261.205 Q845.224 261.205 847.516 263.983 Q849.807 266.737 849.807 272.108 Z" fill="#000000" fill-rule="nonzero" fill-opacity="1" /></svg>
